<svg xmlns="http://www.w3.org/2000/svg" width="2048" height="1152" viewBox="0 0 2048 1152" fill="none">
  <defs>
    <linearGradient id="space" x1="1024" y1="0" x2="1024" y2="1152" gradientUnits="userSpaceOnUse">
      <stop stop-color="#05091F"/>
      <stop offset="0.45" stop-color="#0A1038"/>
      <stop offset="1" stop-color="#080A27"/>
    </linearGradient>
    <radialGradient id="nebula-core" cx="0" cy="0" r="1" gradientTransform="translate(1024 602) rotate(90) scale(310 610)" gradientUnits="userSpaceOnUse">
      <stop stop-color="#F2FBFF" stop-opacity="0.72"/>
      <stop offset="0.08" stop-color="#87E9FF" stop-opacity="0.58"/>
      <stop offset="0.25" stop-color="#597DFF" stop-opacity="0.38"/>
      <stop offset="0.52" stop-color="#7448E8" stop-opacity="0.20"/>
      <stop offset="0.77" stop-color="#B346D8" stop-opacity="0.08"/>
      <stop offset="1" stop-color="#251264" stop-opacity="0"/>
    </radialGradient>
    <radialGradient id="warm-nebula" cx="0" cy="0" r="1" gradientTransform="translate(1280 700) rotate(180) scale(520 260)" gradientUnits="userSpaceOnUse">
      <stop stop-color="#F4A45F" stop-opacity="0.15"/>
      <stop offset="0.42" stop-color="#B653E6" stop-opacity="0.11"/>
      <stop offset="1" stop-color="#321071" stop-opacity="0"/>
    </radialGradient>
    <radialGradient id="cool-nebula" cx="0" cy="0" r="1" gradientTransform="translate(770 525) rotate(12) scale(690 300)" gradientUnits="userSpaceOnUse">
      <stop stop-color="#5DDAFF" stop-opacity="0.17"/>
      <stop offset="0.5" stop-color="#4A67FF" stop-opacity="0.11"/>
      <stop offset="1" stop-color="#1A2062" stop-opacity="0"/>
    </radialGradient>
    <linearGradient id="orbit" x1="340" y1="420" x2="1710" y2="770" gradientUnits="userSpaceOnUse">
      <stop stop-color="#75E6FF" stop-opacity="0.08"/>
      <stop offset="0.22" stop-color="#9EEBFF" stop-opacity="0.43"/>
      <stop offset="0.52" stop-color="#8C87FF" stop-opacity="0.28"/>
      <stop offset="0.78" stop-color="#C471FF" stop-opacity="0.36"/>
      <stop offset="1" stop-color="#6BDEFF" stop-opacity="0.05"/>
    </linearGradient>
    <linearGradient id="arm-a" x1="470" y1="410" x2="1600" y2="740" gradientUnits="userSpaceOnUse">
      <stop stop-color="#5EDFFF" stop-opacity="0"/>
      <stop offset="0.22" stop-color="#7AE4FF" stop-opacity="0.30"/>
      <stop offset="0.55" stop-color="#8580FF" stop-opacity="0.17"/>
      <stop offset="0.82" stop-color="#D06CFF" stop-opacity="0.20"/>
      <stop offset="1" stop-color="#6BDFFF" stop-opacity="0"/>
    </linearGradient>
    <filter id="blur-42" x="-20%" y="-40%" width="140%" height="180%">
      <feGaussianBlur stdDeviation="42"/>
    </filter>
    <filter id="blur-18" x="-20%" y="-40%" width="140%" height="180%">
      <feGaussianBlur stdDeviation="18"/>
    </filter>
    <filter id="glow" x="-40%" y="-80%" width="180%" height="260%">
      <feGaussianBlur stdDeviation="8" result="b"/>
      <feMerge><feMergeNode in="b"/><feMergeNode in="SourceGraphic"/></feMerge>
    </filter>
    <filter id="star-glow" x="-500%" y="-500%" width="1000%" height="1000%">
      <feGaussianBlur stdDeviation="2.4" result="b"/>
      <feMerge><feMergeNode in="b"/><feMergeNode in="SourceGraphic"/></feMerge>
    </filter>
    <radialGradient id="vignette" cx="0" cy="0" r="1" gradientTransform="translate(1024 576) rotate(90) scale(760 1270)" gradientUnits="userSpaceOnUse">
      <stop offset="0.54" stop-color="#000" stop-opacity="0"/>
      <stop offset="1" stop-color="#010313" stop-opacity="0.72"/>
    </radialGradient>
  </defs>

  <rect width="2048" height="1152" fill="url(#space)"/>
  <ellipse cx="1024" cy="602" rx="860" ry="420" fill="url(#cool-nebula)" filter="url(#blur-42)"/>
  <ellipse cx="1180" cy="670" rx="690" ry="330" fill="url(#warm-nebula)" filter="url(#blur-42)"/>
  <ellipse id="galaxy-nebula-core" cx="1024" cy="602" rx="690" ry="325" fill="url(#nebula-core)" filter="url(#blur-18)"/>

  <g opacity="0.68" filter="url(#glow)">
    <ellipse cx="1024" cy="604" rx="780" ry="286" stroke="url(#orbit)" stroke-width="2"/>
    <ellipse cx="1024" cy="604" rx="660" ry="234" stroke="url(#orbit)" stroke-width="1.5" stroke-dasharray="8 18"/>
    <ellipse cx="1024" cy="604" rx="530" ry="184" stroke="url(#orbit)" stroke-width="1.2" stroke-dasharray="3 20"/>
  </g>

  <g opacity="0.52" filter="url(#blur-18)">
    <path d="M275 656C472 376 860 321 1135 421C1416 523 1577 761 1804 668" stroke="url(#arm-a)" stroke-width="34" stroke-linecap="round"/>
    <path d="M323 506C640 789 1127 839 1531 553" stroke="url(#arm-a)" stroke-width="27" stroke-linecap="round"/>
    <path d="M505 812C756 590 1187 457 1599 677" stroke="url(#arm-a)" stroke-width="21" stroke-linecap="round"/>
  </g>

  <g fill="#EAF8FF" filter="url(#star-glow)" opacity="0.84">
    <circle cx="126" cy="147" r="1.8"/><circle cx="199" cy="324" r="1.2"/><circle cx="284" cy="104" r="1.5"/>
    <circle cx="354" cy="259" r="1.1"/><circle cx="438" cy="173" r="2"/><circle cx="528" cy="327" r="1.3"/>
    <circle cx="626" cy="120" r="1.1"/><circle cx="717" cy="229" r="1.7"/><circle cx="805" cy="92" r="1.3"/>
    <circle cx="919" cy="183" r="1.1"/><circle cx="1042" cy="111" r="1.8"/><circle cx="1150" cy="202" r="1.2"/>
    <circle cx="1266" cy="86" r="1.4"/><circle cx="1374" cy="249" r="1.7"/><circle cx="1480" cy="132" r="1.2"/>
    <circle cx="1576" cy="286" r="1.9"/><circle cx="1719" cy="122" r="1.3"/><circle cx="1841" cy="239" r="1.6"/>
    <circle cx="1930" cy="96" r="1.1"/><circle cx="95" cy="742" r="1.4"/><circle cx="216" cy="896" r="1.8"/>
    <circle cx="332" cy="1012" r="1.1"/><circle cx="486" cy="913" r="1.5"/><circle cx="629" cy="1030" r="1.2"/>
    <circle cx="781" cy="921" r="1.9"/><circle cx="936" cy="1067" r="1.3"/><circle cx="1090" cy="942" r="1.2"/>
    <circle cx="1234" cy="1038" r="1.7"/><circle cx="1406" cy="925" r="1.1"/><circle cx="1547" cy="1054" r="1.5"/>
    <circle cx="1693" cy="918" r="1.8"/><circle cx="1846" cy="1021" r="1.2"/><circle cx="1978" cy="852" r="1.4"/>
  </g>

  <g fill="#9CEBFF" opacity="0.72">
    <circle cx="250" cy="540" r="1.2"/><circle cx="408" cy="689" r="1.1"/><circle cx="582" cy="455" r="1.3"/>
    <circle cx="742" cy="744" r="1.2"/><circle cx="873" cy="425" r="1.1"/><circle cx="1007" cy="805" r="1.4"/>
    <circle cx="1194" cy="386" r="1.2"/><circle cx="1343" cy="773" r="1.1"/><circle cx="1504" cy="447" r="1.3"/>
    <circle cx="1657" cy="711" r="1.2"/><circle cx="1802" cy="503" r="1.1"/>
  </g>

  <g fill="#CDA8FF" opacity="0.62">
    <circle cx="370" cy="436" r="1.1"/><circle cx="514" cy="775" r="1.2"/><circle cx="684" cy="568" r="1"/>
    <circle cx="849" cy="704" r="1.1"/><circle cx="1137" cy="737" r="1.2"/><circle cx="1291" cy="514" r="1"/>
    <circle cx="1451" cy="674" r="1.1"/><circle cx="1732" cy="584" r="1.2"/>
  </g>

  <rect width="2048" height="1152" fill="url(#vignette)"/>
</svg>
